# xmcd CD database file
#
# Track frame offsets:
#	150
#	13118
#	29091
#	40232
#	50249
#	60358
#	73739
#	87330
#	97307
#	106918
#	119849
#	129302
#	139531
#	154983
#	166718
#	177858
#	188326
#	199878
#	216680
#	232663
#	244532
#	257135
#	269334
#	279837
#	286942
#	302019
#
# Disc length: 4258 seconds
#
# Revision: 0
# Processed by: cddbd v1.5.1PL0 Copyright (c) Steve Scherf et al.
# Submitted via: CDex 1.51
#
DISCID=7c10a01a
DTITLE=James Burgess and Friends - Seven Times Blessed - UK4 Dances of Universal Peace
DYEAR=1999
DGENRE=DUP
TTITLE0=Waikera Elohim
TTITLE1=Innana-Ishtar
TTITLE2=Shekinah
TTITLE3=Neesa Neesa
TTITLE4=Wishi Ta
TTITLE5=Beauty is Eternity
TTITLE6=Radhe Bol Dance
TTITLE7=Maha Mantra Dance
TTITLE8=Sita Ram Bolo Pyare
TTITLE9=B'reshith Dance
TTITLE10=Jewish Line Dance
TTITLE11=Salaam Khaliq Allah
TTITLE12=Jamil Allah
TTITLE13=Anu Danu Don Danaan
TTITLE14=Dark Moon Zikr
TTITLE15=Alleluia
TTITLE16=Ahebw Labwheldbabaykhun
TTITLE17=Sura of Love
TTITLE18=Light The Lamp
TTITLE19=Shema Israel
TTITLE20=I Am In The Heart  Of God
TTITLE21=Be Thou A Smooth Way
TTITLE22=Om Mani Padme Hum Healing Dance
TTITLE23=The Thousand Armed Chenrezig Dance
TTITLE24=Kwan Yin Mudra Dance
TTITLE25=Use Us For The Purpose
EXTD=YEAR: 1999
EXTT0=
EXTT1=
EXTT2=
EXTT3=
EXTT4=
EXTT5=
EXTT6=
EXTT7=
EXTT8=
EXTT9=
EXTT10=
EXTT11=
EXTT12=
EXTT13=
EXTT14=
EXTT15=
EXTT16=
EXTT17=
EXTT18=
EXTT19=
EXTT20=
EXTT21=
EXTT22=
EXTT23=
EXTT24=
EXTT25=
PLAYORDER=
